<svg width="74" height="47" viewBox="0 0 74 47" fill="none" xmlns="http://www.w3.org/2000/svg">
<path d="M32.0117 14.7832C33.0195 15.0645 33.875 15.3867 34.5781 15.75C35.293 16.1133 35.8906 16.4941 36.3711 16.8926C36.8633 17.2793 37.25 17.6777 37.5312 18.0879C37.8125 18.498 38.0293 18.8906 38.1816 19.2656C38.334 19.6406 38.4277 19.9922 38.4629 20.3203C38.5098 20.6367 38.5332 20.9062 38.5332 21.1289C38.5332 21.9492 38.375 22.6816 38.0586 23.3262C37.7539 23.9707 37.3379 24.5391 36.8105 25.0312C36.2832 25.5234 35.668 25.9395 34.9648 26.2793C34.2734 26.6191 33.5469 26.8945 32.7852 27.1055C32.0234 27.3281 31.2441 27.4863 30.4473 27.5801C29.6504 27.6855 28.8945 27.7383 28.1797 27.7383C27.0195 27.7383 25.8184 27.6211 24.5762 27.3867C23.3457 27.1523 22.0977 26.7715 20.832 26.2441C20.5508 26.127 20.4102 25.9219 20.4102 25.6289C20.4102 25.4297 20.4805 25.2715 20.6211 25.1543C20.7617 25.0254 20.9141 24.9609 21.0781 24.9609C21.1602 24.9609 21.248 24.9785 21.3418 25.0137C22.4316 25.4707 23.5508 25.8164 24.6992 26.0508C25.8477 26.2852 27.002 26.4023 28.1621 26.4023C29.7441 26.4023 31.1035 26.25 32.2402 25.9453C33.377 25.6406 34.3086 25.2422 35.0352 24.75C35.7734 24.2461 36.3184 23.6836 36.6699 23.0625C37.0215 22.4297 37.1973 21.791 37.1973 21.1465C37.1973 20.4316 36.998 19.7695 36.5996 19.1602C36.2129 18.5508 35.6562 18.0059 34.9297 17.5254C34.2148 17.0449 33.3535 16.6348 32.3457 16.2949C31.3379 15.9551 30.2188 15.7031 28.9883 15.5391C28.1797 15.6797 27.3945 15.7793 26.6328 15.8379C25.8711 15.8965 25.168 15.9258 24.5234 15.9258H24.1191C24.0371 15.9258 23.9609 15.9199 23.8906 15.9082C23.0469 17.9355 22.0391 19.6875 20.8672 21.1641C19.707 22.6406 18.4648 23.8652 17.1406 24.8379C15.8281 25.7988 14.4746 26.5137 13.0801 26.9824C11.6973 27.4395 10.3672 27.668 9.08984 27.668C7.76562 27.668 6.54688 27.4805 5.43359 27.1055C4.33203 26.7422 3.38281 26.2207 2.58594 25.541C1.78906 24.8613 1.16797 24.041 0.722656 23.0801C0.277344 22.1074 0.0546875 21.0234 0.0546875 19.8281C0.0546875 18.5859 0.294922 17.3027 0.775391 15.9785C1.26758 14.6426 1.99414 13.2891 2.95508 11.918C3.86914 10.6289 4.88281 9.47461 5.99609 8.45508C7.10938 7.42383 8.27539 6.52148 9.49414 5.74805C10.7246 4.97461 11.9902 4.3125 13.291 3.76172C14.5918 3.21094 15.8809 2.75977 17.1582 2.4082C18.4473 2.05664 19.7012 1.80469 20.9199 1.65234C22.1504 1.48828 23.3047 1.40625 24.3828 1.40625C25.2617 1.40625 26.0996 1.43555 26.8965 1.49414C27.6934 1.55273 28.4551 1.64062 29.1816 1.75781C29.6035 1.28906 29.9434 0.955078 30.2012 0.755859C30.459 0.544922 30.6055 0.427734 30.6406 0.404297C30.7812 0.333984 30.9043 0.298828 31.0098 0.298828C31.1738 0.298828 31.3203 0.345703 31.4492 0.439453C31.5781 0.533203 31.6426 0.667969 31.6426 0.84375C31.6426 1.07812 31.5605 1.27734 31.3965 1.44141C31.2324 1.59375 31.0098 1.80469 30.7285 2.07422C32.873 2.60156 34.5137 3.39844 35.6504 4.46484C36.7871 5.51953 37.3555 6.82617 37.3555 8.38477C37.3555 9.24023 37.2148 10.0078 36.9336 10.6875C36.6523 11.3672 36.2656 11.9648 35.7734 12.4805C35.293 12.9961 34.7246 13.4473 34.0684 13.834C33.4238 14.209 32.7383 14.5254 32.0117 14.7832ZM29.0059 14.2031C29.5215 14.1094 30.0488 13.9863 30.5879 13.834C31.1387 13.6816 31.6719 13.5 32.1875 13.2891C32.7148 13.0664 33.2129 12.8086 33.6816 12.5156C34.1504 12.2109 34.5547 11.8594 34.8945 11.4609C35.2461 11.0508 35.5215 10.5938 35.7207 10.0898C35.9316 9.58594 36.0371 9.01172 36.0371 8.36719C36.0371 7.05469 35.4922 5.9707 34.4023 5.11523C33.3125 4.25977 31.748 3.62695 29.709 3.2168C29.123 3.94336 28.5723 4.74609 28.0566 5.625C27.541 6.50391 27.0664 7.41797 26.6328 8.36719C26.1992 9.30469 25.8066 10.2598 25.4551 11.2324C25.1152 12.1934 24.834 13.125 24.6113 14.0273C24.8457 14.0156 25.0625 14.0098 25.2617 14.0098C25.4609 14.0098 25.6309 14.0098 25.7715 14.0098C26.2285 14.0098 26.7266 14.0273 27.2656 14.0625C27.8047 14.0859 28.3848 14.1328 29.0059 14.2031ZM28.2148 2.9707C27.6172 2.88867 27.002 2.83008 26.3691 2.79492C25.7363 2.75977 25.0742 2.74219 24.3828 2.74219C23.3516 2.74219 22.2559 2.81836 21.0957 2.9707C19.9355 3.12305 18.7461 3.36328 17.5273 3.69141C16.3086 4.01953 15.0781 4.44727 13.8359 4.97461C12.6055 5.49023 11.4043 6.11719 10.2324 6.85547C9.07227 7.58203 7.96484 8.43164 6.91016 9.4043C5.85547 10.377 4.89453 11.4727 4.02734 12.6914C3.14844 13.9336 2.48633 15.1582 2.04102 16.3652C1.5957 17.5723 1.37305 18.7207 1.37305 19.8105C1.37305 20.8301 1.55469 21.7441 1.91797 22.5527C2.29297 23.3613 2.82031 24.0469 3.5 24.6094C4.17969 25.1602 4.99414 25.5879 5.94336 25.8926C6.89258 26.1855 7.94141 26.332 9.08984 26.332C10.2383 26.332 11.4336 26.127 12.6758 25.7168C13.918 25.2949 15.1309 24.6562 16.3145 23.8008C17.498 22.9336 18.623 21.8438 19.6895 20.5312C20.7559 19.207 21.6875 17.6367 22.4844 15.8203C22.2734 15.8203 22.0566 15.7617 21.834 15.6445C21.6113 15.5156 21.5 15.3164 21.5 15.0469C21.5 14.7656 21.6348 14.5664 21.9043 14.4492C22.1738 14.3203 22.5957 14.2148 23.1699 14.1328C23.4863 13.1719 23.8086 12.2109 24.1367 11.25C24.4648 10.2891 24.8281 9.33984 25.2266 8.40234C25.625 7.46484 26.0645 6.54492 26.5449 5.64258C27.0254 4.72852 27.582 3.83789 28.2148 2.9707ZM51.1543 22.1309C51.0254 22.4004 50.8613 22.7227 50.6621 23.0977C50.4746 23.4609 50.2578 23.8418 50.0117 24.2402C49.7656 24.6387 49.4902 25.0371 49.1855 25.4355C48.8809 25.8223 48.5469 26.1738 48.1836 26.4902C47.832 26.7949 47.4512 27.041 47.041 27.2285C46.6426 27.4277 46.2148 27.5273 45.7578 27.5273C45.0547 27.5273 44.4512 27.3105 43.9473 26.877C43.4434 26.4434 43.0156 25.875 42.6641 25.1719C42.3125 24.4688 42.0254 23.6719 41.8027 22.7812C41.5918 21.8789 41.4277 20.9648 41.3105 20.0391C41.1934 19.1016 41.1113 18.1934 41.0645 17.3145C41.0293 16.4355 41.0117 15.6562 41.0117 14.9766C41.0117 13.9922 41.041 12.9727 41.0996 11.918C41.1699 10.8633 41.2754 9.83203 41.416 8.82422C41.5566 7.81641 41.7324 6.86133 41.9434 5.95898C42.166 5.05664 42.4238 4.26563 42.7168 3.58594C43.0215 2.90625 43.3672 2.36719 43.7539 1.96875C44.1406 1.57031 44.5801 1.37109 45.0723 1.37109C45.459 1.37109 45.8047 1.46484 46.1094 1.65234C46.4258 1.82812 46.6895 2.12109 46.9004 2.53125C47.1113 2.94141 47.2754 3.47461 47.3926 4.13086C47.5098 4.78711 47.5684 5.58984 47.5684 6.53906C47.5684 7.71094 47.4453 8.92383 47.1992 10.1777C46.9531 11.4199 46.6191 12.6738 46.1973 13.9395C45.7754 15.2051 45.2773 16.4707 44.7031 17.7363C44.1289 18.9902 43.5137 20.2148 42.8574 21.4102C43.1504 22.8984 43.543 24.0703 44.0352 24.9258C44.5273 25.7695 45.1191 26.1914 45.8105 26.1914C46.2793 26.1914 46.7305 26.0098 47.1641 25.6465C47.5977 25.2715 47.9961 24.832 48.3594 24.3281C48.7227 23.8242 49.0391 23.3145 49.3086 22.7988C49.5898 22.2715 49.8066 21.8496 49.959 21.5332C50.0176 21.416 50.0996 21.3281 50.2051 21.2695C50.3105 21.1992 50.4277 21.1641 50.5566 21.1641C50.7559 21.1641 50.9141 21.2344 51.0312 21.375C51.1602 21.5156 51.2246 21.6738 51.2246 21.8496C51.2246 21.9199 51.2012 22.0137 51.1543 22.1309ZM42.3477 15.0645C42.3477 15.8145 42.3652 16.5352 42.4004 17.2266C42.4355 17.918 42.4824 18.5801 42.541 19.2129C43.0332 18.2637 43.502 17.2559 43.9473 16.1895C44.3926 15.1113 44.7852 14.0273 45.125 12.9375C45.4648 11.8359 45.7344 10.7461 45.9336 9.66797C46.1445 8.57812 46.25 7.54102 46.25 6.55664C46.25 5.17383 46.1387 4.18359 45.916 3.58594C45.6934 2.98828 45.3945 2.68945 45.0195 2.68945C44.7734 2.68945 44.5332 2.85938 44.2988 3.19922C44.0762 3.53906 43.8652 4.00195 43.666 4.58789C43.4668 5.17383 43.2852 5.86523 43.1211 6.66211C42.957 7.45898 42.8164 8.31445 42.6992 9.22852C42.5938 10.1426 42.5059 11.0977 42.4355 12.0938C42.377 13.0898 42.3477 14.0801 42.3477 15.0645ZM58.0801 25.0664C57.7871 25.0664 57.5293 25.043 57.3066 24.9961C57.1309 25.3477 56.9199 25.6758 56.6738 25.9805C56.4277 26.2734 56.1406 26.5312 55.8125 26.7539C55.4961 26.9766 55.1387 27.1523 54.7402 27.2812C54.3418 27.4102 53.9082 27.4746 53.4395 27.4746C52.8887 27.4746 52.3848 27.375 51.9277 27.1758C51.4707 26.9883 51.0723 26.7246 50.7324 26.3848C50.3926 26.0332 50.1289 25.6172 49.9414 25.1367C49.7539 24.6445 49.6602 24.1055 49.6602 23.5195C49.6602 22.7695 49.7949 22.1191 50.0645 21.5684C50.334 21.0059 50.6445 20.543 50.9961 20.1797C51.3477 19.8047 51.6992 19.5293 52.0508 19.3535C52.4023 19.166 52.666 19.0723 52.8418 19.0723C53.041 19.0723 53.1875 19.125 53.2812 19.2305C53.3867 19.3359 53.4395 19.4766 53.4395 19.6523C53.4395 19.8516 53.375 20.0039 53.2461 20.1094C53.1289 20.2031 52.9766 20.2969 52.7891 20.3906C52.6016 20.4844 52.4023 20.6191 52.1914 20.7949C51.9805 20.959 51.7812 21.1699 51.5938 21.4277C51.418 21.6855 51.2715 21.9902 51.1543 22.3418C51.0371 22.6934 50.9785 23.0859 50.9785 23.5195C50.9785 23.9062 51.0371 24.2695 51.1543 24.6094C51.2715 24.9375 51.4414 25.2246 51.6641 25.4707C51.8867 25.7051 52.1504 25.8926 52.4551 26.0332C52.7598 26.1621 53.0996 26.2266 53.4746 26.2266C54.1426 26.2266 54.6934 26.0742 55.127 25.7695C55.5723 25.4531 55.9121 25.0547 56.1465 24.5742C55.4551 24.2109 54.8867 23.6953 54.4414 23.0273C53.9961 22.3594 53.7734 21.6094 53.7734 20.7773C53.7734 20.1094 53.9316 19.5645 54.248 19.1426C54.5762 18.7207 55.0039 18.5098 55.5312 18.5098C55.8477 18.5098 56.1465 18.5859 56.4277 18.7383C56.709 18.8906 56.9551 19.1309 57.166 19.459C57.3887 19.7871 57.5645 20.209 57.6934 20.7246C57.8223 21.2402 57.8867 21.8555 57.8867 22.5703C57.8867 22.9453 57.8398 23.3379 57.7461 23.748C57.8164 23.7598 57.8867 23.7656 57.957 23.7656C58.0273 23.7656 58.1035 23.7656 58.1855 23.7656C58.584 23.7656 58.9414 23.7188 59.2578 23.625C59.5742 23.5312 59.8613 23.3906 60.1191 23.2031C60.377 23.0156 60.6055 22.7754 60.8047 22.4824C61.0156 22.1895 61.2148 21.8496 61.4023 21.4629C61.4375 21.3926 61.5137 21.3281 61.6309 21.2695C61.748 21.1992 61.8652 21.1641 61.9824 21.1641C62.1348 21.1641 62.2754 21.2285 62.4043 21.3574C62.5449 21.4746 62.6152 21.6328 62.6152 21.832C62.6152 21.9258 62.5918 22.0312 62.5449 22.1484C62.498 22.2539 62.4512 22.3535 62.4043 22.4473C62.2051 22.7988 61.9707 23.1387 61.7012 23.4668C61.4434 23.7832 61.1328 24.0645 60.7695 24.3105C60.418 24.5449 60.0195 24.7324 59.5742 24.873C59.1289 25.0137 58.6309 25.0781 58.0801 25.0664ZM55.0742 20.6367C55.0742 20.8594 55.1035 21.0938 55.1621 21.3398C55.2207 21.5859 55.3086 21.832 55.4258 22.0781C55.5547 22.3125 55.707 22.541 55.8828 22.7637C56.0703 22.9746 56.2871 23.1562 56.5332 23.3086C56.5684 23.0625 56.5859 22.8223 56.5859 22.5879C56.5859 22.2715 56.5625 21.9492 56.5156 21.6211C56.4688 21.293 56.3984 20.9941 56.3047 20.7246C56.2227 20.4434 56.1172 20.2207 55.9883 20.0566C55.8594 19.8809 55.707 19.793 55.5312 19.793C55.4609 19.793 55.3672 19.8457 55.25 19.9512C55.1328 20.0566 55.0742 20.2852 55.0742 20.6367ZM67.7305 28.7227C69.9336 25.8516 71.4629 23.4668 72.3184 21.5684C72.377 21.4395 72.4531 21.3457 72.5469 21.2871C72.6523 21.2168 72.7695 21.1816 72.8984 21.1816C73.0977 21.1816 73.2617 21.252 73.3906 21.3926C73.5195 21.5215 73.584 21.6738 73.584 21.8496C73.584 21.9316 73.5664 22.0137 73.5312 22.0957C73.0156 23.2676 72.2832 24.5742 71.334 26.0156C70.3848 27.457 69.1836 29.0859 67.7305 30.9023C67.7305 31.6406 67.7363 32.3789 67.748 33.1172C67.7598 33.8555 67.7656 34.6641 67.7656 35.543C67.7656 36.4219 67.7422 37.2891 67.6953 38.1445C67.6602 39.0117 67.5898 39.832 67.4844 40.6055C67.3789 41.3906 67.2324 42.1113 67.0449 42.7676C66.8691 43.4355 66.6348 44.0098 66.3418 44.4902C66.0605 44.9824 65.7148 45.3633 65.3047 45.6328C64.9062 45.9141 64.4316 46.0547 63.8809 46.0547C63.0957 46.0547 62.4922 45.7559 62.0703 45.1582C61.6484 44.5605 61.4375 43.7109 61.4375 42.6094C61.4375 42.0234 61.4902 41.3848 61.5957 40.6934C61.7129 40.0137 61.877 39.3105 62.0879 38.584C62.2988 37.8574 62.5508 37.1191 62.8438 36.3691C63.1484 35.6309 63.4824 34.9102 63.8457 34.207C64.209 33.5039 64.6016 32.8301 65.0234 32.1855C65.457 31.541 65.9141 30.9551 66.3945 30.4277C66.4062 29.6074 66.4121 28.793 66.4121 27.9844C66.4238 27.1758 66.4414 26.4316 66.4648 25.752C66.1133 26.1973 65.6914 26.5488 65.1992 26.8066C64.7188 27.0645 64.2383 27.1934 63.7578 27.1934C63.3477 27.1934 62.9727 27.1172 62.6328 26.9648C62.3047 26.8008 62.0234 26.5781 61.7891 26.2969C61.5547 26.0039 61.373 25.6641 61.2441 25.2773C61.1152 24.8906 61.0508 24.4688 61.0508 24.0117C61.0508 23.0977 61.2031 22.2949 61.5078 21.6035C61.8242 20.9004 62.2227 20.3145 62.7031 19.8457C63.1836 19.377 63.7109 19.0254 64.2852 18.791C64.8711 18.5566 65.4336 18.4395 65.9727 18.4395C66.3359 18.4395 66.6699 18.4863 66.9746 18.5801C67.2793 18.6738 67.5371 18.7793 67.748 18.8965C67.9707 19.0137 68.1406 19.125 68.2578 19.2305C68.375 19.3359 68.4395 19.3945 68.4512 19.4062C68.5801 19.5469 68.6445 19.7051 68.6445 19.8809C68.6445 20.0566 68.5801 20.2148 68.4512 20.3555C68.3223 20.4844 68.1699 20.5488 67.9941 20.5488C67.8301 20.5488 67.6719 20.4844 67.5195 20.3555C67.4727 20.3203 67.4082 20.2734 67.3262 20.2148C67.2559 20.1445 67.1562 20.0742 67.0273 20.0039C66.9102 19.9336 66.7637 19.875 66.5879 19.8281C66.4238 19.7812 66.2246 19.7578 65.9902 19.7578C65.6387 19.7578 65.252 19.8398 64.8301 20.0039C64.4082 20.1562 64.0156 20.4023 63.6523 20.7422C63.2891 21.082 62.9844 21.5215 62.7383 22.0605C62.4922 22.5879 62.3691 23.2266 62.3691 23.9766C62.3691 24.5391 62.4922 24.9961 62.7383 25.3477C62.9844 25.6875 63.3652 25.8574 63.8809 25.8574C64.127 25.8574 64.3848 25.7871 64.6543 25.6465C64.9355 25.5059 65.2051 25.2891 65.4629 24.9961C65.7207 24.7031 65.9434 24.334 66.1309 23.8887C66.3301 23.4434 66.4707 22.916 66.5527 22.3066C66.5762 22.1426 66.6523 22.0078 66.7812 21.9023C66.9102 21.7852 67.0625 21.7266 67.2383 21.7266C67.4375 21.7266 67.5898 21.7969 67.6953 21.9375C67.8125 22.0781 67.8711 22.2363 67.8711 22.4121C67.8711 22.4238 67.8652 22.6055 67.8535 22.957C67.8418 23.2969 67.8301 23.7539 67.8184 24.3281C67.8066 24.9023 67.7891 25.5703 67.7656 26.332C67.7539 27.082 67.7422 27.8789 67.7305 28.7227ZM66.3945 32.5723C65.8438 33.334 65.3457 34.1602 64.9004 35.0508C64.4551 35.9531 64.0742 36.8613 63.7578 37.7754C63.4414 38.6895 63.1953 39.5742 63.0195 40.4297C62.8555 41.2969 62.7734 42.0703 62.7734 42.75C62.7734 43.1836 62.8086 43.5293 62.8789 43.7871C62.9609 44.0449 63.0547 44.2441 63.1602 44.3848C63.2773 44.5254 63.4004 44.6191 63.5293 44.666C63.6699 44.7129 63.7988 44.7363 63.916 44.7363C64.2793 44.7363 64.5957 44.5898 64.8652 44.2969C65.1348 44.0039 65.3633 43.6113 65.5508 43.1191C65.7383 42.6387 65.8906 42.082 66.0078 41.4492C66.125 40.8164 66.2129 40.1602 66.2715 39.4805C66.3301 38.8125 66.3711 38.1445 66.3945 37.4766C66.418 36.8086 66.4297 36.1934 66.4297 35.6309C66.4297 35.127 66.4297 34.623 66.4297 34.1191C66.4297 33.6152 66.418 33.0996 66.3945 32.5723Z" fill="#F2F2F2"/>
</svg>
